<svg width="30" height="30" viewBox="0 0 30 30" fill="#111"  xmlns="http://www.w3.org/2000/svg">
<path d="M23.23 0.830078H6.69995C3.38995 0.830078 0.800049 3.43998 0.800049 6.72998V23.26C0.800049 26.57 3.40995 29.1599 6.69995 29.1599H23.23C26.54 29.1599 29.13 26.55 29.13 23.26V6.72998C29.13 3.41998 26.52 0.830078 23.23 0.830078ZM19.6801 9.09009H17.4399C16.7299 9.09009 16.14 9.42989 16.14 10.1399V11.4399H19.6801L19.45 14.98H16.14V24.4199H12.6V14.98H10.24V11.4399H12.6V9.19995C12.6 6.83995 13.9 5.54004 16.74 5.54004H19.6899V9.09009H19.6801Z" fill="white"/>
</svg>
