<svg width="29" height="27" viewBox="0 0 29 27" fill="none" xmlns="http://www.w3.org/2000/svg">
<path d="M14.73 26.3096C10.83 26.3096 6.93008 26.3096 3.03008 26.3096C1.97008 26.3096 1.19003 25.8295 0.730034 24.8895C0.580034 24.5695 0.490044 24.1897 0.490044 23.8397C0.470044 19.5697 0.480034 15.2896 0.480034 11.0196C0.480034 10.7496 0.480034 10.4896 0.480034 10.2196C0.470034 9.93955 0.590071 9.72965 0.830071 9.56965C2.37007 8.54965 3.91007 7.51959 5.45007 6.50959C5.58007 6.41959 5.64006 6.3295 5.63006 6.1695C5.62006 5.7095 5.62006 5.2396 5.63006 4.7696C5.63006 4.3396 5.89005 4.08967 6.31005 4.08967C7.16005 4.08967 8.01004 4.08966 8.86004 4.07966C8.99004 4.07966 9.14004 4.02954 9.24004 3.95954C10.93 2.84954 12.61 1.72969 14.29 0.609687C14.64 0.369687 14.8501 0.369687 15.2001 0.609687C16.8901 1.72969 18.5701 2.85955 20.2601 3.96955C20.3601 4.02955 20.49 4.07966 20.61 4.07966C21.45 4.08966 22.28 4.07966 23.12 4.07966C23.63 4.07966 23.87 4.31965 23.87 4.81965C23.87 5.26965 23.88 5.71951 23.87 6.17951C23.87 6.31951 23.9201 6.40956 24.0301 6.47956C25.5501 7.48956 27.07 8.50959 28.6 9.50959C28.89 9.69959 29.0101 9.9296 29.0101 10.2696C29.0101 14.7696 29.0101 19.2696 29.0101 23.7696C29.0101 25.2196 27.92 26.2996 26.47 26.2996C22.55 26.3096 18.64 26.3096 14.73 26.3096ZM27.7001 11.4195C27.6101 11.4795 27.5601 11.5196 27.5101 11.5596C25.6201 12.9496 23.7301 14.3396 21.8401 15.7196C21.2701 16.1396 20.7101 16.5596 20.1401 16.9696C19.7201 17.2696 19.17 17.0396 19.11 16.5396C19.08 16.2596 19.21 16.0595 19.43 15.8995C20.42 15.1795 21.41 14.4396 22.41 13.7196C22.54 13.6196 22.5901 13.5197 22.5901 13.3597C22.5801 10.7697 22.5901 8.18968 22.5901 5.59968C22.5901 5.52968 22.5901 5.45946 22.5901 5.37946C17.3501 5.37946 12.14 5.37946 6.91003 5.37946C6.91003 5.46946 6.91003 5.54946 6.91003 5.62946C6.91003 8.19946 6.91003 10.7697 6.91003 13.3497C6.91003 13.5197 6.96003 13.6296 7.10003 13.7296C8.11003 14.4596 9.11004 15.1995 10.11 15.9295C10.39 16.1295 10.47 16.4296 10.35 16.7196C10.24 16.9896 9.95008 17.1497 9.65008 17.0897C9.53008 17.0597 9.40004 16.9995 9.30004 16.9195C6.88004 15.1495 4.47004 13.3697 2.05004 11.5997C1.97004 11.5397 1.89004 11.4895 1.80004 11.4195C1.80004 15.4895 1.80004 19.5197 1.80004 23.5897C1.91004 23.5097 2.00007 23.4495 2.08007 23.3895C6.15007 20.3995 10.22 17.4195 14.29 14.4295C14.62 14.1895 14.8701 14.1895 15.2001 14.4195C15.7001 14.7795 16.2001 15.1496 16.7001 15.5196C20.3101 18.1696 23.9201 20.8196 27.5301 23.4696C27.5801 23.5096 27.64 23.5497 27.72 23.5997C27.7 19.5197 27.7001 15.4895 27.7001 11.4195ZM2.29003 24.8096C2.53003 24.9896 2.78004 25.0296 3.05004 25.0296C6.77004 25.0296 10.4801 25.0296 14.2001 25.0296C18.2901 25.0296 22.39 25.0296 26.48 25.0296C26.73 25.0296 26.96 24.9696 27.18 24.8096C27.1 24.7496 27.0301 24.6995 26.9601 24.6395C22.9501 21.6995 18.93 18.7496 14.93 15.8096C14.78 15.6996 14.69 15.6996 14.54 15.8096C10.51 18.7696 6.49008 21.7195 2.46008 24.6795C2.41008 24.7195 2.36003 24.7696 2.29003 24.8096ZM5.60003 12.6295C5.60003 11.0495 5.60003 9.4995 5.60003 7.9195C4.47003 8.6695 3.36004 9.40949 2.24004 10.1595C3.37004 10.9895 4.47003 11.7995 5.60003 12.6295ZM23.87 12.6295C25 11.7995 26.1 10.9895 27.23 10.1595C26.1 9.40949 25 8.6695 23.87 7.9195C23.87 9.5095 23.87 11.0495 23.87 12.6295ZM11.4001 4.06965C13.6501 4.06965 15.8401 4.06965 18.0201 4.06965C18.0201 4.02965 18 4.01959 17.98 4.00959C16.93 3.30959 15.8801 2.6095 14.8301 1.9195C14.7801 1.8895 14.6801 1.89951 14.6301 1.92951C14.2801 2.14951 13.94 2.37969 13.6 2.60969C12.88 3.07969 12.1601 3.55965 11.4001 4.06965Z" fill="#E20913"/>
<path d="M15 11.4293C14.54 11.8293 14.04 11.9394 13.49 11.7294C12.99 11.5394 12.7 11.1395 12.63 10.6195C12.52 9.76952 12.77 9.00929 13.36 8.38929C13.77 7.94929 14.28 7.77928 14.88 7.87928C15.16 7.92928 15.37 8.08948 15.56 8.32948C15.6 8.18948 15.63 8.06935 15.66 7.94935C15.98 7.94935 16.28 7.94935 16.61 7.94935C16.53 8.31935 16.46 8.66943 16.39 9.02943C16.27 9.60943 16.14 10.1894 16.03 10.7694C16.01 10.8594 16.03 11.0094 16.09 11.0494C16.15 11.0894 16.3 11.0694 16.38 11.0194C17.03 10.6494 17.38 10.0695 17.44 9.33949C17.55 8.12949 16.72 7.16945 15.46 7.04945C15.02 7.00945 14.56 7.01951 14.13 7.10951C12.94 7.33951 12.16 8.20935 11.94 9.44935C11.85 9.96935 11.85 10.4994 12.03 10.9994C12.29 11.7194 12.77 12.2394 13.5 12.4894C14.45 12.8194 15.42 12.8294 16.38 12.5394C16.79 12.4194 17.15 12.1895 17.45 11.8695C17.5 11.8095 17.6 11.7694 17.68 11.7594C17.88 11.7394 18.07 11.7594 18.27 11.7594C18.28 11.7794 18.3 11.7995 18.31 11.8195C18.13 12.0395 17.97 12.2894 17.77 12.4894C17.31 12.9394 16.74 13.1895 16.12 13.3095C15.22 13.4895 14.32 13.4493 13.44 13.1893C12.06 12.7693 11.36 11.7495 11.24 10.3695C11.19 9.76952 11.27 9.18928 11.48 8.62928C12.02 7.24928 13.06 6.51952 14.52 6.36952C15.17 6.29952 15.81 6.34951 16.42 6.60951C17.39 7.00951 17.95 7.73942 18.09 8.76942C18.24 9.85942 17.85 10.7593 16.98 11.4293C16.57 11.7493 16.09 11.8595 15.57 11.8295C15.29 11.8095 15.19 11.7293 15 11.4293ZM13.49 10.2394C13.5 10.2494 13.52 10.2494 13.53 10.2594C13.56 10.4194 13.57 10.5794 13.62 10.7294C13.72 11.0394 13.98 11.2193 14.29 11.1493C14.48 11.1093 14.71 11.0095 14.83 10.8595C15.26 10.3395 15.43 9.72946 15.32 9.05946C15.24 8.58946 14.77 8.37948 14.34 8.57948C14.09 8.68948 13.9 8.87928 13.81 9.12928C13.69 9.48928 13.6 9.86939 13.49 10.2394Z" fill="#E20913"/>
</svg>
