<svg width="29" height="30" viewBox="0 0 29 30" fill="none" xmlns="http://www.w3.org/2000/svg">
<path d="M18.5599 7.33008H11.0099C8.39989 7.44008 7.23987 8.62997 7.11987 11.22V18.77C7.22987 21.24 8.41989 22.5399 11.0099 22.6599H18.5599C21.1699 22.5499 22.3298 21.36 22.4498 18.77V11.22C22.3498 8.62997 21.1699 7.46008 18.5599 7.33008ZM14.7899 19.8601C12.0699 19.8601 9.93982 17.73 9.93982 15.01C9.93982 12.29 12.0699 10.1599 14.7899 10.1599C17.5099 10.1599 19.6399 12.29 19.6399 15.01C19.6399 17.73 17.5099 19.8601 14.7899 19.8601ZM19.8599 11.1201C19.2699 11.1201 18.6699 10.6399 18.6699 9.92993C18.6699 9.21993 19.1499 8.73999 19.8599 8.73999C20.4499 8.73999 21.0499 9.21993 21.0499 9.92993C21.0499 10.6399 20.4599 11.1201 19.8599 11.1201ZM17.9899 15.01C17.9899 16.77 16.5699 18.1899 14.8099 18.1899C13.0499 18.1899 11.6299 16.77 11.6299 15.01C11.6299 13.25 13.0499 11.8301 14.8099 11.8301C16.5699 11.8301 17.9899 13.25 17.9899 15.01ZM23.0599 0.830078H6.52991C3.21991 0.830078 0.629883 3.43998 0.629883 6.72998V23.26C0.629883 26.57 3.23991 29.1599 6.52991 29.1599H23.0599C26.3699 29.1599 28.9598 26.55 28.9598 23.26V6.72998C28.9598 3.43998 26.3599 0.830078 23.0599 0.830078ZM24.2299 18.8999C24.1199 22.3299 22.0999 24.21 18.6699 24.46H10.8699C7.43987 24.35 5.55994 22.4499 5.30994 18.8999V11.1001C5.53994 7.6701 7.43987 5.79004 10.8699 5.54004H18.6699C22.0999 5.65004 23.9799 7.6701 24.2299 11.1001C24.2299 11.1201 24.2299 18.8999 24.2299 18.8999Z" fill="white"/>
</svg>
