<svg width="30" height="30" viewBox="0 0 30 30" fill="none" xmlns="http://www.w3.org/2000/svg">
<path d="M23.12 0.830078H6.58997C3.27997 0.830078 0.689941 3.43998 0.689941 6.72998V23.26C0.689941 26.57 3.29997 29.1599 6.58997 29.1599H23.12C26.43 29.1599 29.02 26.55 29.02 23.26V6.72998C29.04 3.43998 26.43 0.830078 23.12 0.830078ZM10.15 23.27H6.60999V10.28H10.15V23.27ZM8.37 8.75C7.18 8.75 6.23999 7.81012 6.23999 6.62012C6.23999 5.43012 7.18 4.48999 8.37 4.48999C9.56 4.48999 10.38 5.53998 10.38 6.72998C10.38 7.91998 9.55 8.75 8.37 8.75ZM24.3101 23.27H20.77V16.6599C20.77 12.6399 16.04 12.9999 16.04 16.6599V23.27H12.5V10.28H16.04V12.4099C17.69 9.33991 24.3 9.10011 24.3 15.3601V23.27H24.3101Z" fill="white"/>
</svg>
