<svg width="29" height="30" viewBox="0 0 29 30" fill="none" xmlns="http://www.w3.org/2000/svg">
<path fill-rule="evenodd" clip-rule="evenodd" d="M22.6199 0.790039H6.04993C2.73993 0.790039 0.129883 3.39996 0.129883 6.70996V23.28C0.129883 26.59 2.73993 29.2 6.04993 29.2H22.6199C25.9299 29.2 28.5399 26.59 28.5399 23.28V6.70996C28.5399 3.39996 25.9399 0.790039 22.6199 0.790039ZM17.9899 11.8101C19.3099 12.7501 20.8799 13.27 22.5099 13.27V10.03C21.6299 10.03 20.7899 9.76003 20.0399 9.28003C19.0099 8.61003 18.2798 7.54006 18.0698 6.31006C18.0298 6.04006 17.9899 5.76999 17.9899 5.48999H14.7499V18.3799C14.7499 19.8899 13.5199 21.1199 12.0099 21.1399C11.7199 21.1399 11.4399 21.1 11.1699 21.01C9.70992 20.53 8.92991 18.98 9.40991 17.52C9.67991 16.7 10.3299 16.04 11.1299 15.78C11.6899 15.59 12.2798 15.59 12.8198 15.76V12.45C11.6098 12.28 10.3899 12.49 9.28992 13.04C8.19992 13.6 7.31987 14.46 6.73987 15.53C5.54987 17.73 5.85987 20.4301 7.48987 22.3301C9.11987 24.2101 11.7599 24.88 14.0999 24.02C15.2499 23.6 16.2299 22.8301 16.9199 21.8201C17.6099 20.8201 17.9899 19.6199 17.9899 18.4099V11.8101Z" fill="white"/>
</svg>
