<svg width="30" height="37" viewBox="0 0 30 37" fill="none" xmlns="http://www.w3.org/2000/svg">
<path d="M12.19 10.2201C9.70998 12.6601 7.51009 14.9402 5.17009 17.0602C4.51009 17.6502 3.4601 18.0302 2.5601 18.0802C1.4701 18.1402 0.679989 17.3402 0.319989 16.2702C-0.0700108 15.1002 0.230018 14.0901 1.10002 13.2301C4.99002 9.33014 8.88006 5.42018 12.7701 1.52018C12.8601 1.43018 12.9401 1.34018 13.0401 1.27018C14.2701 0.230175 15.8 0.190224 16.94 1.32022C20.98 5.31022 24.99 9.32026 28.98 13.3603C30.18 14.5703 30.0901 16.3501 28.9201 17.4401C27.7501 18.5301 26.22 18.4701 24.96 17.2401C22.93 15.2501 20.9401 13.2301 18.9301 11.2301C18.6401 10.9401 18.3401 10.6801 17.7901 10.1601C17.7901 10.8701 17.7901 11.2901 17.7901 11.7101C17.7901 18.8701 17.7901 26.0201 17.7901 33.1801C17.7901 33.6301 17.8 34.0902 17.75 34.5302C17.58 35.9502 16.38 37.0102 14.98 37.0002C13.57 37.0002 12.38 35.9402 12.24 34.5102C12.17 33.8202 12.2 33.1101 12.2 32.4101C12.2 25.5401 12.2 18.6702 12.2 11.8102C12.19 11.3702 12.19 10.9301 12.19 10.2201Z" fill="white"/>
</svg>
