<svg width="29" height="30" viewBox="0 0 29 30" fill="none" xmlns="http://www.w3.org/2000/svg">
<path d="M22.71 0.830078H6.18005C2.92005 0.830078 0.280029 3.46998 0.280029 6.72998V23.26C0.280029 26.52 2.92005 29.1599 6.18005 29.1599H22.71C25.97 29.1599 28.61 26.52 28.61 23.26V6.72998C28.61 3.47998 25.97 0.830078 22.71 0.830078ZM21.89 11.45V11.9099C21.72 17.6999 16.87 22.2601 11.09 22.0801C11.03 22.0801 10.98 22.0801 10.9 22.0801C8.81002 22.0601 6.78 21.5099 5 20.4299C5.31 20.4499 5.60994 20.4499 5.93994 20.4299C7.65994 20.4499 9.32998 19.9099 10.73 18.8999C9.11998 18.8999 7.67999 17.9199 7.10999 16.4299C7.35999 16.4699 7.58997 16.49 7.83997 16.49C8.17997 16.49 8.52999 16.4499 8.85999 16.3799C7.09999 16.1099 5.79003 14.6201 5.78003 12.8401C6.32003 13.1301 6.91002 13.28 7.52002 13.3C6.49002 12.69 5.82003 11.5801 5.78003 10.3701C5.78003 9.74012 5.95005 9.11007 6.30005 8.57007C8.35005 10.8301 11.22 12.1901 14.27 12.3101C14.21 12.0401 14.17 11.75 14.17 11.49C14.27 9.45999 15.95 7.88995 17.98 7.94995C19.03 7.94995 20.05 8.36989 20.8 9.13989C21.66 8.98989 22.49 8.70003 23.25 8.28003C22.94 9.12003 22.33 9.80998 21.54 10.23C22.34 10.13 23.13 9.94012 23.86 9.62012C23.34 10.3201 22.65 10.95 21.89 11.45Z" fill="white"/>
</svg>
