<svg width="28" height="35" viewBox="0 0 28 35" fill="none" xmlns="http://www.w3.org/2000/svg">
<path d="M13.7299 34.7498C13.3599 34.0498 13.0199 33.3798 12.6599 32.7398C11.1699 30.0898 9.23993 27.7699 7.16993 25.5599C5.87993 24.1799 4.58994 22.7999 3.36994 21.3599C1.92994 19.6599 0.869955 17.7298 0.509955 15.4898C-4.48227e-05 12.3098 0.569936 9.29985 2.23994 6.54985C4.38994 2.99985 7.55997 0.819738 11.65 0.189738C15.89 -0.470262 19.65 0.689884 22.84 3.58988C25.05 5.60988 26.4099 8.12987 26.9399 11.0699C27.5899 14.6599 26.79 17.9498 24.51 20.7898C22.86 22.8398 21.04 24.7497 19.28 26.6997C17.12 29.0797 15.1799 31.6099 13.8599 34.5699C13.8299 34.6099 13.7899 34.6498 13.7299 34.7498ZM13.8099 20.4397C18.0199 20.3997 21.3899 16.9497 21.3599 12.6997C21.3299 8.57975 17.8299 5.14973 13.6799 5.17973C9.47994 5.20973 6.05992 8.67969 6.09992 12.8897C6.13992 17.0797 9.60994 20.4797 13.8099 20.4397Z" fill="#E20913"/>
</svg>
